<?xml version="1.0" encoding="UTF-8"?>
<svg width="12px" height="11px" viewBox="0 0 12 11" version="1.1" xmlns="http://www.w3.org/2000/svg" xmlns:xlink="http://www.w3.org/1999/xlink">
    <!-- Generator: Sketch 64 (93537) - https://sketch.com -->
    <title>替换图片</title>
    <desc>Created with Sketch.</desc>
    <g id="页面-1" stroke="none" stroke-width="1" fill="none" fill-rule="evenodd">
        <g id="替换图片" transform="translate(-2.000000, -3.000000)" fill-rule="nonzero">
            <rect id="矩形" fill="#000000" opacity="0" x="0" y="0" width="16" height="16"></rect>
            <path d="M13.6645633,10 C13.8392164,10 14.0006287,10.1654329 14,10.3746379 L14,10.3746379 L14,13.6260058 C14,13.8352108 13.8524572,14 13.6639327,14 L13.6639327,14 L10.3366959,14 C10.1475409,14 10,13.8352108 10,13.6260058 L10,13.6260058 L10,10.3746379 C10,10.1654329 10.1475409,10 10.3366959,10 L10.3366959,10 Z M13,11 L11,11 L11,13 L13,13 L13,11 Z M8.59906396,3.00151154 C10.8445138,3.20404532 12.6219449,4.62565801 12.9110764,6.81282901 L12.9110764,6.81282901 L14,6.81282901 L12.4212168,9 L10.8434737,6.81282901 L11.8211128,6.81282901 C11.5319813,5.18868253 10.1768071,4.2419098 8.48777951,4.08395283 C8.22048882,4.06069537 8.02080083,3.81358478 8,3.54224766 C8,3.22633373 8.28809152,2.97825407 8.59906396,3.00151154 Z M5.66456326,3 C5.83921639,3 6.00062868,3.16543289 6,3.37463791 L6,3.37463791 L6,6.62600579 C6,6.83521081 5.85245724,7 5.66393274,7 L5.66393274,7 L2.33669594,7 C2.14754092,7 2,6.83521081 2,6.62600579 L2,6.62600579 L2,3.37463791 C2,3.16543289 2.14754092,3 2.33669594,3 L2.33669594,3 Z M5,4 L3,4 L3,6 L5,6 L5,4 Z M7.51008923,13.0058981 C5.62139122,12.8610186 4.17678685,11.7855327 4.11022481,10.0060923 L5.15441688,10.0060923 L3.57772846,8 L2,10.0060923 L3.04419207,10.0060923 C3.08787341,12.3028325 4.97657142,13.791625 7.39984584,13.9987227 C7.71081539,14.0191658 8,13.791625 8,13.501866 C8.00391679,13.2553727 7.79508661,13.0439366 7.51008923,13.0058981 L7.51008923,13.0058981 Z" id="形状" fill="#333333"></path>
        </g>
    </g>
</svg>