<?xml version="1.0" standalone="no"?><!DOCTYPE svg PUBLIC "-//W3C//DTD SVG 1.1//EN" "http://www.w3.org/Graphics/SVG/1.1/DTD/svg11.dtd"><svg t="1601191792272" class="icon" viewBox="0 0 1024 1024" version="1.1" xmlns="http://www.w3.org/2000/svg" p-id="11698" xmlns:xlink="http://www.w3.org/1999/xlink" width="200" height="200"><defs><style type="text/css"></style></defs><path d="M908.61 128.18c6.39 15.58 3.67 28.82-7.79 39.82L620.47 448.85v422.37a33.75 33.75 0 0 1-22 33.44 37.17 37.17 0 0 1-14.2 2.75 32.41 32.41 0 0 1-25.65-11L413 750.74a36.49 36.49 0 0 1-11-25.66V448.85L121.6 168c-11.91-11-14.2-24.27-7.8-39.85 6.42-14.66 17.41-22 33.45-22h727.92c15.58 0.04 26.57 7.37 33.44 22.03z" p-id="11699"></path></svg>