<?xml version="1.0" encoding="UTF-8"?>
<svg width="16px" height="16px" viewBox="0 0 16 16" version="1.1" xmlns="http://www.w3.org/2000/svg" xmlns:xlink="http://www.w3.org/1999/xlink">
    <!-- Generator: Sketch 64 (93537) - https://sketch.com -->
    <title>查找替换-replace-线</title>
    <desc>Created with Sketch.</desc>
    <g id="页面-1" stroke="none" stroke-width="1" fill="none" fill-rule="evenodd">
        <g id="查找替换-replace-线" fill="#000000" fill-rule="nonzero">
            <rect id="矩形" opacity="0" x="0" y="0" width="16" height="16"></rect>
            <path d="M12.215619,11.1375238 L15.4765714,14.3992381 L14.3992381,15.4773333 L11.1382857,12.215619 C9.92367056,13.1883578 8.41326073,13.7170954 6.85714286,13.7142857 C4.25135006,13.715439 1.87018917,12.2392078 0.712380953,9.90476191 L5.33333333,9.90476191 L4.33980953,11.560381 C5.11392629,11.975294 5.9788446,12.1917853 6.85714286,12.1904762 C8.2441366,12.1926606 9.57705574,11.6526574 10.5714286,10.6857143 L10.6857143,10.5714286 C11.6526574,9.57705574 12.1926606,8.2441366 12.1904762,6.85714286 C12.1904762,6.32761905 12.1135238,5.81638095 11.9695238,5.33333333 L13.544381,5.33333333 C13.655619,5.82323809 13.7142857,6.33371428 13.7142857,6.85714286 C13.7169217,8.41299949 13.188194,9.9231125 12.215619,11.1375238 L12.215619,11.1375238 Z M13.0019048,3.80952381 L8.38095237,3.80952381 L9.37447619,2.15390477 C8.60035943,1.73899176 7.73544112,1.52250041 6.85714286,1.52380953 C3.91009523,1.52380953 1.52380953,3.91009523 1.52380953,6.85714286 C1.52380953,7.38666667 1.60076191,7.89790477 1.74476191,8.38095238 L0.169904766,8.38095238 C0.056721746,7.88092438 -0.000266342478,7.36982046 -9.29266256e-07,6.85714286 C-9.29266256e-07,3.06819048 3.06819047,-6.75208732e-07 6.85714286,-6.75208732e-07 C9.46293566,-0.00115324965 11.8440965,1.47507793 13.0019048,3.80952381 L13.0019048,3.80952381 Z" id="形状"></path>
        </g>
    </g>
</svg>